HIERARCHY
ROOT Hips
{
	OFFSET -21.947001 39.810204 44.525997
	CHANNELS 6 Xposition Yposition Zposition Zrotation Xrotation Yrotation
	JOINT Chest
	{
		OFFSET -0.201599 0.334099 6.453201
		CHANNELS 6 Xposition Yposition Zposition Zrotation Xrotation Yrotation
		JOINT Chest2
		{
			OFFSET 0.000000 0.000000 3.568001
			CHANNELS 6 Xposition Yposition Zposition Zrotation Xrotation Yrotation
			JOINT Neck
			{
				OFFSET 0.000000 0.000000 8.296402
				CHANNELS 6 Xposition Yposition Zposition Zrotation Xrotation Yrotation
				JOINT Head
				{
					OFFSET 0.000000 0.000000 2.173901
					CHANNELS 6 Xposition Yposition Zposition Zrotation Xrotation Yrotation
					End Site
					{
						OFFSET 0.000000 0.000000 7.891998
					}
				}
			}
			JOINT LeftCollar
			{
				OFFSET 1.927601 0.221401 6.049000
				CHANNELS 6 Xposition Yposition Zposition Zrotation Xrotation Yrotation
				JOINT LeftShoulder
				{
					OFFSET 4.959700 0.000000 0.000000
					CHANNELS 6 Xposition Yposition Zposition Zrotation Xrotation Yrotation
					JOINT LeftElbow
					{
						OFFSET 0.000000 0.000000 -8.654202
						CHANNELS 6 Xposition Yposition Zposition Zrotation Xrotation Yrotation
						JOINT LeftWrist
						{
							OFFSET 0.000000 0.000000 -13.864101
							CHANNELS 6 Xposition Yposition Zposition Zrotation Xrotation Yrotation
							End Site
							{
								OFFSET 0.000000 0.000000 -2.173901
							}
						}
					}
				}
			}
			JOINT RightCollar
			{
				OFFSET -3.155701 -0.764999 6.687801
				CHANNELS 6 Xposition Yposition Zposition Zrotation Xrotation Yrotation
				JOINT RightShoulder
				{
					OFFSET -3.592899 0.000000 0.000000
					CHANNELS 6 Xposition Yposition Zposition Zrotation Xrotation Yrotation
					JOINT RightElbow
					{
						OFFSET 0.000000 0.000000 -10.352398
						CHANNELS 6 Xposition Yposition Zposition Zrotation Xrotation Yrotation
						JOINT RightWrist
						{
							OFFSET 0.000000 0.000000 -12.750301
							CHANNELS 6 Xposition Yposition Zposition Zrotation Xrotation Yrotation
							End Site
							{
								OFFSET 0.000000 0.000000 -2.173901
							}
						}
					}
				}
			}
		}
	}
	JOINT LeftHip
	{
		OFFSET 2.460600 -0.518101 -2.735500
		CHANNELS 6 Xposition Yposition Zposition Zrotation Xrotation Yrotation
		JOINT LeftKnee
		{
			OFFSET 0.000000 -0.000004 -17.005899
			CHANNELS 6 Xposition Yposition Zposition Zrotation Xrotation Yrotation
			JOINT LeftAnkle
			{
				OFFSET 0.000000 0.000000 -19.194401
				CHANNELS 6 Xposition Yposition Zposition Zrotation Xrotation Yrotation
				End Site
				{
					OFFSET 0.000000 -8.134600 0.000000
				}
			}
		}
	}
	JOINT RightHip
	{
		OFFSET -3.115499 -0.679600 -2.320301
		CHANNELS 6 Xposition Yposition Zposition Zrotation Xrotation Yrotation
		JOINT RightKnee
		{
			OFFSET 0.000000 -0.000004 -17.680401
			CHANNELS 6 Xposition Yposition Zposition Zrotation Xrotation Yrotation
			JOINT RightAnkle
			{
				OFFSET 0.000000 0.000000 -16.993797
				CHANNELS 6 Xposition Yposition Zposition Zrotation Xrotation Yrotation
				End Site
				{
					OFFSET 0.000000 -8.842300 0.000000
				}
			}
		}
	}
}
MOTION
Frames: 10
Frame Time: 0.041667
-16.247501 35.352505 25.537590 3865.331475 -0.316719 1.946351 -0.201599 0.334099 6.453205 -46.597849 2.920948 9.415300 -0.000002 0.000007 3.568002 7.133256 -2.710544 0.430587 0.000000 0.000001 8.296402 -233.125531 -75.993839 -42.432321 -0.000003 0.000000 2.173905 29.197307 -50.090008 17.752164 1.927598 0.221399 6.048999 -23.982613 4.922466 -1.891662 4.959695 -0.000002 0.000008 150.482619 194.812937 113.723169 -0.000001 0.000004 -8.654200 4.540678 -56.636779 31.989744 -0.000008 -0.000005 -13.864098 3706.530998 -168.300943 141.144657 -3.155704 -0.765003 6.687795 25.680449 -0.886260 -1.003552 -3.592902 0.000000 0.000011 -29.651682 37.329282 77.695772 0.000002 -0.000009 -10.352394 -94.714664 -123.652515 -96.682646 -0.000001 -0.000008 -12.750296 73.514986 11.165706 69.864953 2.460602 -0.518096 -2.735507 -24.426467 12.333346 -10.898545 -0.000002 -0.000003 -17.005898 -233.721751 174.331740 -83.798710 -0.000004 0.000002 -19.194401 417.108069 30.273150 60.974731 -3.115489 -0.679596 -2.320300 -23.276935 -18.695433 -13.531794 -0.000001 -0.000015 -17.680393 -36.484623 198.084570 -289.971419 0.000002 0.000003 -16.993792 327.546940 36.633866 -81.634687
-16.359097 35.325905 25.566595 3865.170174 -0.484740 2.143535 -0.201604 0.334099 6.453197 -47.030576 2.735325 9.411402 -0.000004 0.000005 3.567997 7.177632 -2.686131 0.438213 -0.000002 -0.000001 8.296400 -236.307415 -75.678496 -45.296688 -0.000001 -0.000004 2.173906 29.552579 -49.980603 17.372820 1.927604 0.221395 6.049000 -24.240451 5.306445 -1.680345 4.959704 0.000002 -0.000003 150.301058 194.712820 113.224736 -0.000002 -0.000001 -8.654196 2.952910 -56.588104 30.909987 -0.000009 -0.000002 -13.864103 3707.158720 -168.405472 140.843214 -3.155707 -0.765003 6.687802 25.787340 -0.635603 -0.883255 -3.592904 0.000008 0.000001 -31.521190 36.190543 80.907320 0.000002 -0.000005 -10.352392 -96.004647 -124.222713 -98.599566 -0.000002 -0.000004 -12.750291 76.777125 11.672236 71.992796 2.460600 -0.518099 -2.735508 -25.266736 13.145163 -10.650701 0.000000 -0.000002 -17.005896 -232.722467 177.121435 -84.678534 -0.000004 -0.000002 -19.194401 418.570549 29.677097 63.915025 -3.115493 -0.679597 -2.320306 -23.031538 -18.313115 -13.482719 -0.000007 -0.000020 -17.680393 -36.148882 196.408319 -290.098843 0.000005 0.000002 -16.993792 328.152832 37.445272 -80.082684
-16.458296 35.308704 25.592094 3865.273337 -0.778730 2.334662 -0.201600 0.334101 6.453203 -47.496422 2.624661 9.529307 -0.000000 -0.000001 3.568000 7.051046 -2.631019 0.235324 0.000001 0.000000 8.296394 -239.726007 -75.125982 -48.485553 -0.000001 -0.000006 2.173908 29.897384 -49.879816 16.980209 1.927600 0.221405 6.048991 -24.456442 5.614884 -1.309558 4.959699 -0.000007 0.000005 150.173962 194.695007 112.705477 -0.000004 0.000007 -8.654196 1.411485 -56.393522 29.821005 -0.000006 0.000001 -13.864099 3707.717374 -168.370952 140.520938 -3.155710 -0.765002 6.687786 26.035452 -0.314305 -0.568432 -3.592898 0.000006 0.000007 -32.892613 34.880413 83.912296 0.000001 -0.000000 -10.352392 -97.249449 -124.756342 -100.558259 0.000002 0.000000 -12.750300 80.462217 12.176715 73.596907 2.460600 -0.518094 -2.735505 -26.320390 14.042731 -10.360920 -0.000003 0.000004 -17.005894 -231.850881 180.524796 -85.516004 -0.000006 0.000001 -19.194401 420.716949 28.800825 67.722999 -3.115497 -0.679595 -2.320299 -22.878762 -17.807982 -13.337294 -0.000000 -0.000005 -17.680401 -35.875210 194.425569 -290.258779 0.000002 0.000003 -16.993790 329.017234 38.412099 -78.475055
-16.545904 35.298302 25.614098 3865.287325 -0.897686 2.523274 -0.201603 0.334104 6.453201 -47.653236 2.401947 9.527267 0.000000 -0.000001 3.567995 7.059018 -2.683935 0.254021 -0.000002 -0.000003 8.296408 -243.176810 -74.759801 -51.517105 -0.000002 0.000001 2.173907 30.260395 -49.788821 16.615419 1.927602 0.221404 6.049004 -24.831651 6.120565 -1.136547 4.959704 0.000004 0.000002 150.028684 194.751752 112.178091 -0.000002 0.000004 -8.654202 -0.037186 -56.026471 28.791945 -0.000008 -0.000003 -13.864100 3708.144015 -168.205197 140.168596 -3.155703 -0.765000 6.687802 26.062207 -0.088036 -0.446082 -3.592898 0.000008 0.000010 -34.181105 33.726494 86.800032 -0.000001 -0.000005 -10.352398 -97.667416 -125.238458 -101.528078 -0.000001 0.000003 -12.750290 84.913144 12.891126 74.374647 2.460598 -0.518094 -2.735509 -27.122480 14.721158 -10.189564 -0.000004 -0.000006 -17.005896 -231.157207 184.001963 -86.374668 -0.000005 0.000002 -19.194401 423.168031 28.003560 71.588545 -3.115492 -0.679593 -2.320302 -22.592203 -17.466609 -13.251619 -0.000001 -0.000003 -17.680397 -35.751652 192.783087 -290.348746 0.000001 0.000009 -16.993790 329.483162 39.174328 -76.994086
-16.622097 35.294300 25.633892 3865.417153 -1.004192 2.708904 -0.201602 0.334099 6.453196 -47.686335 2.154187 9.538451 -0.000008 0.000009 3.567999 6.823950 -2.596754 0.418888 0.000002 0.000004 8.296400 -245.766790 -74.441405 -53.814056 -0.000001 0.000001 2.173904 30.609790 -49.694424 16.256680 1.927600 0.221396 6.048994 -24.943496 6.599293 -1.291561 4.959702 -0.000001 0.000003 149.823915 194.880487 111.721322 0.000003 0.000000 -8.654203 -1.477722 -55.608135 27.760705 -0.000000 0.000002 -13.864107 3708.509895 -168.043404 139.811664 -3.155704 -0.765007 6.687795 26.246370 -0.117809 -0.295913 -3.592896 0.000001 0.000008 -35.021723 32.695555 89.487930 -0.000000 -0.000004 -10.352386 -98.090956 -125.655892 -102.416276 -0.000001 -0.000008 -12.750293 90.193037 13.933296 74.620226 2.460600 -0.518095 -2.735505 -27.838203 15.301441 -10.063107 -0.000008 -0.000005 -17.005890 -230.656417 186.950310 -87.081551 -0.000005 0.000003 -19.194403 425.539746 27.348316 74.824265 -3.115495 -0.679595 -2.320303 -22.341781 -17.132896 -13.150327 -0.000008 -0.000017 -17.680397 -35.807820 191.526796 -290.340085 0.000001 0.000000 -16.993792 329.814918 39.753555 -75.844702
-16.688599 35.293499 25.652592 3865.619983 -1.105351 2.872248 -0.201597 0.334101 6.453204 -47.600097 1.906482 9.559541 -0.000002 0.000008 3.567999 6.818087 -2.565019 0.420766 0.000005 0.000004 8.296402 -248.940724 -73.918336 -56.440264 -0.000002 0.000001 2.173898 31.095379 -49.564818 16.078696 1.927601 0.221395 6.048999 -25.292812 7.053251 -1.216561 4.959702 0.000001 0.000004 149.551404 194.982954 111.167831 -0.000005 0.000001 -8.654197 -2.854522 -55.181365 26.780632 0.000005 0.000000 -13.864100 3708.852606 -167.904437 139.483405 -3.155701 -0.765003 6.687800 26.200686 -0.042738 -0.016644 -3.592894 -0.000002 0.000000 -35.636061 31.557765 92.066271 -0.000004 -0.000007 -10.352383 -97.854556 -126.023697 -102.563514 0.000002 -0.000006 -12.750293 96.498907 15.178378 74.139695 2.460606 -0.518098 -2.735502 -28.441936 15.787287 -9.952732 0.000000 -0.000002 -17.005899 -230.199587 188.584077 -87.551421 -0.000004 0.000001 -19.194401 427.195356 26.997079 76.780397 -3.115490 -0.679597 -2.320298 -22.040800 -16.795444 -12.993229 -0.000004 -0.000005 -17.680397 -36.048270 190.563152 -290.205367 0.000004 -0.000005 -16.993790 329.879368 40.141063 -74.802142
-16.746599 35.294502 25.670792 3865.881825 -1.208203 3.032566 -0.201602 0.334104 6.453197 -47.448505 1.683111 9.570777 0.000001 0.000008 3.567999 6.825604 -2.528631 0.425112 0.000001 0.000013 8.296404 -252.097556 -73.254626 -59.012418 0.000000 0.000000 2.173898 31.332147 -49.489495 15.688084 1.927604 0.221407 6.048997 -25.573430 7.478008 -1.172606 4.959699 -0.000001 0.000002 149.277514 195.136442 110.603432 -0.000004 0.000003 -8.654201 -4.288401 -54.769357 25.831174 -0.000004 0.000001 -13.864094 3709.135431 -167.777013 139.167481 -3.155702 -0.764992 6.687797 26.119728 -0.017358 0.357330 -3.592898 0.000004 0.000001 -35.862188 30.270917 94.563067 0.000006 -0.000006 -10.352390 -97.008705 -126.213017 -102.155827 0.000009 -0.000003 -12.750297 103.902805 16.437665 73.038860 2.460600 -0.518092 -2.735507 -28.929068 16.173012 -9.866986 -0.000005 -0.000000 -17.005899 -229.748494 188.888649 -87.745938 -0.000004 0.000006 -19.194403 428.025006 26.878128 77.556812 -3.115494 -0.679590 -2.320302 -21.696431 -16.456335 -12.804064 -0.000005 -0.000008 -17.680397 -36.465554 189.896676 -289.955491 -0.000001 0.000005 -16.993788 330.117960 40.419188 -74.175212
-16.797400 35.297501 25.688095 3866.210548 -1.313158 3.190803 -0.201601 0.334099 6.453198 -47.201658 1.506183 9.568547 -0.000004 0.000007 3.567991 6.820547 -2.500067 0.427409 0.000005 0.000007 8.296403 -254.982518 -72.488702 -61.282479 -0.000003 -0.000004 2.173900 31.454230 -49.447916 15.311177 1.927602 0.221404 6.049002 -25.791858 7.868407 -1.129735 4.959704 -0.000006 0.000001 148.956932 195.257965 110.008912 -0.000005 0.000005 -8.654200 -5.726625 -54.432779 24.937868 -0.000005 -0.000002 -13.864096 3709.372356 -167.789389 138.909997 -3.155705 -0.765000 6.687799 26.889113 -2.573089 0.702132 -3.592902 -0.000004 0.000001 -37.633174 30.964536 98.699840 0.000001 -0.000007 -10.352401 -95.484139 -126.485104 -100.896456 -0.000002 -0.000002 -12.750303 112.297162 17.570081 71.544271 2.460598 -0.518098 -2.735500 -29.259110 16.497178 -9.825073 -0.000003 -0.000008 -17.005899 -229.319886 187.800040 -87.691255 -0.000005 0.000000 -19.194401 427.892883 27.035694 76.889202 -3.115496 -0.679592 -2.320295 -21.369862 -16.120908 -12.605112 -0.000002 -0.000013 -17.680401 -36.993213 189.482329 -289.622806 0.000002 0.000007 -16.993797 330.329969 40.562062 -73.805303
-16.840595 35.303104 25.704897 3866.638937 -1.402061 3.357117 -0.201599 0.334101 6.453199 -46.910190 1.439413 9.555225 -0.000001 -0.000004 3.567998 6.782830 -2.536936 0.415320 0.000004 0.000004 8.296406 -257.629408 -71.595129 -63.257886 -0.000001 -0.000006 2.173906 31.464902 -49.424943 14.915743 1.927604 0.221400 6.049003 -25.907649 8.208868 -1.166008 4.959699 -0.000003 0.000005 148.611406 195.380389 109.460892 -0.000003 -0.000000 -8.654202 -7.113907 -54.184236 24.122973 -0.000005 0.000001 -13.864102 3709.651247 -167.875203 138.693685 -3.155703 -0.765000 6.687803 26.656857 -2.303057 1.086272 -3.592897 0.000000 0.000001 -37.124800 29.302645 100.646860 0.000002 -0.000009 -10.352398 -93.293301 -126.835124 -98.865233 0.000003 -0.000003 -12.750303 120.929565 18.315347 69.591725 2.460602 -0.518103 -2.735502 -29.535948 16.748886 -9.831214 -0.000004 -0.000006 -17.005898 -228.875500 185.444800 -87.417535 -0.000007 -0.000002 -19.194393 426.898189 27.440183 74.942878 -3.115494 -0.679589 -2.320303 -21.078386 -15.800043 -12.417687 -0.000003 -0.000006 -17.680395 -37.586265 189.089143 -289.284111 0.000003 -0.000003 -16.993795 330.545584 40.668859 -73.550954
-16.876396 35.311005 25.718994 3867.206772 -1.495419 3.531561 -0.201601 0.334097 6.453195 -46.677564 1.274312 9.468591 -0.000001 0.000010 3.567996 6.793866 -2.422217 0.433868 0.000001 0.000003 8.296402 -259.989512 -70.612073 -64.917540 -0.000001 0.000002 2.173906 31.369563 -49.426421 14.532650 1.927597 0.221402 6.049003 -26.661473 5.736820 -1.061730 4.959704 -0.000006 0.000002 149.298469 193.082536 110.324740 0.000002 0.000002 -8.654198 -8.640816 -53.995097 23.201591 -0.000004 0.000002 -13.864096 3710.029803 -167.886665 138.467100 -3.155703 -0.765004 6.687799 26.367225 -2.044031 1.400432 -3.592902 0.000000 0.000010 -36.301349 27.462169 102.467338 -0.000008 -0.000003 -10.352400 -90.640271 -127.294796 -96.256633 0.000003 -0.000001 -12.750295 129.841117 18.456834 67.327340 2.460608 -0.518103 -2.735504 -29.774318 16.945085 -9.878807 0.000002 -0.000001 -17.005894 -228.471986 181.889509 -86.971360 -0.000004 0.000003 -19.194399 425.118514 28.195315 71.492389 -3.115496 -0.679596 -2.320307 -20.874327 -15.476650 -12.233606 -0.000001 -0.000010 -17.680397 -38.217115 188.723878 -288.970059 0.000006 -0.000000 -16.993793 330.748632 40.736283 -73.368874
